<svg width="41" height="41" viewBox="0 0 41 41" fill="none" xmlns="http://www.w3.org/2000/svg">
<path d="M19.0168 10.8016C19.4367 10.884 19.1453 10.7516 18.8083 10.6472C18.7023 10.6126 18.5972 10.288 18.5107 10.2541C18.3368 10.1912 18.295 10.3985 18.0938 10.328C18.0247 10.3042 17.827 9.80141 17.7582 9.78843C17.38 9.72298 17.1811 9.9975 16.8344 10.08C15.2562 10.4656 13.7656 11.3734 12.3494 12.3947C12.2229 12.486 12.0966 12.5792 11.9698 12.6747C11.9612 12.6803 11.9527 12.686 11.9442 12.6916C11.6062 12.9077 10.8864 13.0447 10.8252 13.5957C10.8196 13.6583 11.2447 13.873 11.2733 13.9023C11.7197 14.3419 10.9135 13.8115 10.7493 13.8504C10.102 14.0038 9.83094 14.5481 9.85688 15.0924C9.8686 15.3267 10.8435 15.4348 10.2709 15.4622C10.2318 15.4652 9.75843 15.2475 9.68884 15.2879C9.53082 15.3813 9.54708 15.6669 9.4803 15.7616C9.34741 15.9463 9.34401 15.9816 9.28986 16.1809C9.21258 16.451 8.88581 16.7263 8.93989 17.0638C8.95329 17.1354 9.49654 17.1662 9.56643 17.2894C9.6359 17.4131 9.54177 17.6776 9.4 17.7476C9.25823 17.8163 8.84741 17.6926 8.74867 17.6902C7.91321 17.6716 8.97772 18.2251 9.00002 18.2713C9.06633 18.4359 9.093 18.592 9.09242 18.7381C9.09056 19.0777 8.94269 19.3764 8.79308 19.6843C8.6854 19.8282 8.58513 19.9799 8.5863 20.143C8.58986 20.4838 8.86079 20.7891 8.9237 21.1099C8.99636 21.4935 8.87143 21.9788 9.15727 22.4066C9.18676 22.4512 9.74471 22.096 9.78007 22.1454C10.1574 22.6725 10.5088 23.3061 10.6357 24.2115C10.6484 24.3033 10.1133 24.57 10.0989 24.6842C10.0137 25.3677 9.66038 26.7882 11.8518 25.3844C12.0021 25.7156 12.2107 26.1112 12.0294 26.6949C11.9139 27.0723 11.2858 27.3414 11.6693 27.3578C11.7554 27.362 12.1343 26.9319 12.2309 26.9659C12.6322 27.1031 12.7652 27.5272 13.2384 27.6073C13.3346 27.6214 13.705 27.2662 13.7885 27.2204C14.4677 26.8525 13.7471 27.8965 13.7237 28.0051C13.7071 28.0848 13.6966 28.1577 13.6914 28.2247C13.6458 28.8408 14.0353 28.9461 14.314 29.2646C14.385 29.3462 14.8165 28.7868 14.9038 28.8482C15.0201 28.9328 15.1303 29.0263 15.2326 29.1294C15.364 29.2439 15.3607 29.3352 15.2602 29.5329C15.2323 29.5956 14.9124 30.1121 14.8896 30.1726C14.8317 30.4552 15.3276 29.4191 15.2202 29.6345C15.2035 29.6809 15.0287 30.1719 15.0102 30.2257C14.7688 31.089 15.1847 29.881 15.176 29.8475C15.2456 29.6597 15.2307 29.893 15.301 30.1579C15.3649 30.4216 15.4938 30.7104 15.6669 30.6062C15.7068 30.5797 15.597 29.918 15.7057 29.8837C16.2767 29.6976 17.5147 29.6209 18.6877 30.1311C18.9419 30.2408 19.1839 30.3738 19.4124 30.5289C19.4199 30.5371 19.4274 30.5454 19.4349 30.5537C19.5362 30.6639 19.3308 31.1371 19.3226 31.1996C19.2343 32.1854 19.6167 30.9255 19.6615 30.8843C20.0245 30.5985 20.2016 31.7328 20.5671 30.1968C21.8047 30.8392 22.6671 29.8015 24.5129 30.4958C24.5369 30.5027 24.7743 31.1076 24.8224 31.1182C25.4109 31.2449 24.9037 30.3662 24.5879 29.1421C24.5021 28.8379 25.4022 30.0448 25.4788 30.1269C25.7409 30.442 26.1352 31.3275 26.1961 31.3829C26.6996 31.8033 25.1022 29.0376 25.331 28.9032C25.3413 28.9033 25.6065 29.4294 25.6563 29.468C25.813 29.5889 25.7573 29.3502 25.9242 29.4861C26.3055 29.8029 27.1823 31.0875 26.935 30.1758C26.9009 30.0583 25.8929 28.5522 26.1517 28.4878C26.2559 28.4642 26.6192 28.1867 26.7928 28.21C26.9658 28.2345 27.2204 28.7678 27.242 28.7837C27.9741 29.2196 28.0431 29.5599 28.8472 30.395C29.654 31.2223 28.0576 29.0215 27.9447 28.7303C27.8443 28.4734 28.2918 28.7336 28.5239 28.8933C28.5461 28.9192 28.5669 28.9419 28.5842 28.9604C28.7439 29.1175 28.9281 29.4442 29.041 29.5156C29.8756 29.8774 28.2367 28.4263 27.9813 28.0766C27.5279 27.53 28.1446 27.9589 28.7114 28.199C28.961 28.3092 29.1932 28.3902 29.2898 28.3625C29.375 28.3372 28.9718 28.1102 28.9737 28.0352C28.9786 27.7505 29.5874 27.9759 29.2671 27.4167C29.2173 27.3221 28.3227 26.4777 29.151 26.831C29.2709 26.8812 29.6614 27.2028 29.816 27.1687C30.0473 27.1192 30.3002 26.918 30.2509 26.6755C30.2134 26.498 29.4273 26.2016 29.7329 26.1921C29.8694 26.1873 30.2126 26.5544 30.4353 26.5233C30.6576 26.4931 30.8228 26.1715 30.8777 26.044C30.9321 25.917 30.3534 25.6674 30.3226 25.6366C30.1474 25.4579 30.0175 25.0819 30.0296 25.0625C30.2725 24.5732 30.7216 24.2156 31.16 23.8507C31.6564 23.4377 32.1332 23.0217 32.3061 22.3818C32.3331 22.2868 31.74 22.001 31.7383 21.983C31.6784 21.5568 33.0287 22.6852 33.6385 22.8077C33.095 22.4858 32.871 22.3212 32.7861 22.2074C32.6867 22.0908 32.751 22.044 32.7309 21.9255C32.7106 21.817 32.2384 21.6071 32.1965 21.5743C31.5618 21.1103 32.4832 21.5216 32.6815 21.5865C33.401 21.8441 32.6292 21.3777 33.1137 21.5351C33.6008 21.6763 34.221 22.1233 34.2967 21.9206C33.8776 21.6918 32.6845 21.3296 32.5442 21.1431C31.9996 20.5203 33.0888 20.0118 33.2098 19.5525C33.3317 19.1561 33.2372 19.0224 33.3992 18.7726C33.6812 18.3066 32.7769 18.5317 32.3378 18.3277C31.895 18.1324 34.1379 17.9647 34.6127 17.8636C35.0858 17.7553 34.5862 17.7724 34.8411 17.6794C35.0952 17.5834 35.4393 17.6639 35.5171 17.5095C35.5945 17.3465 34.6812 17.123 34.1776 17.1826C33.1105 17.299 32.0395 17.6582 32.3668 17.2934C32.386 17.2713 32.9747 17.2023 33.0186 17.1229C33.3461 16.4892 33.2088 15.9045 33.4 15.2254C33.4269 15.1311 34.069 14.9872 34.0911 14.9287C34.3166 14.3098 33.3352 14.8452 32.1011 15.0342C33.646 14.5176 34.5269 14.0213 34.3865 13.6465C34.3025 13.423 33.6597 13.7289 33.1416 13.786C32.986 13.8045 33.3719 13.4658 33.0532 13.5699C32.0131 13.9137 30.9498 14.5294 31.2516 14.0039C31.2662 13.9797 31.8327 13.7851 31.843 13.7189C31.9088 13.2854 30.8545 13.7207 30.5686 13.4356C30.345 13.2129 30.7254 12.4182 30.6585 12.048C32.2745 11.2129 31.7392 11.092 30.5725 11.5676C30.5083 11.3391 30.3262 11.1534 30.3675 10.8723C30.3811 10.7756 30.8638 10.5629 30.9086 10.5266C31.1727 10.3125 31.1794 10.25 31.0821 10.2551C30.9234 10.268 30.4856 10.4798 30.4478 10.4746C30.1041 10.4067 30.1207 10.1408 30.004 9.92714C29.9137 9.76119 29.7476 9.64265 29.3274 9.78415C29.2903 9.79311 28.4001 10.677 28.9571 9.94048C28.9929 9.88745 29.5009 9.58294 29.3718 9.39865C29.2536 9.22256 29.3419 8.41164 28.7218 8.66611C28.569 8.72401 27.8138 9.42451 28.1597 8.69417C28.2062 8.59469 28.4365 8.31862 28.5287 8.13873C28.8168 7.56195 28.0375 8.55814 28.5586 7.61197C29.0791 6.66539 29.2872 5.83338 28.5739 6.25276C28.552 6.26425 27.9359 7.05617 27.8541 6.98513C27.7206 6.86862 27.6178 6.55962 27.4545 6.46835C27.3773 6.42565 27.1047 6.98511 27.0858 6.9869C26.41 6.98406 26.3296 6.30152 25.8843 5.78355C25.8019 5.68698 25.1103 6.2686 25.2264 5.5768C25.3476 4.81719 26.9977 2.26345 26.1333 2.62721C25.783 2.77165 23.7673 6.04538 24.3045 4.09003C23.8824 4.12155 23.6107 3.8943 23.3413 3.65436C23.2796 3.62272 23.1148 3.59346 23.0458 3.59949C22.8643 3.57033 22.6865 3.53947 22.5068 3.54274C22.2402 3.54723 21.974 3.62838 21.7416 3.90138C21.7079 3.93818 21.7682 5.00847 21.6879 5.0076C21.5637 5.00504 21.4076 4.52726 21.3136 4.51149C20.9122 4.43461 20.6669 4.92475 20.3082 4.94738C20.1705 4.95795 20.0863 4.44791 19.9176 4.46344C19.7445 4.48159 19.8292 5.16123 19.5252 4.91202C19.2946 4.72217 18.6963 3.46037 18.3983 3.39418C18.841 4.68577 18.6786 4.71122 18.5514 5.14701C18.5279 5.2312 18.7528 5.65325 18.7512 5.71569C18.7531 5.97775 18.5211 5.64707 18.5396 5.92808C18.5441 5.99553 18.7238 6.42542 18.7386 6.5045C18.8788 7.18906 18.2441 6.32711 18.1194 6.18475C17.6702 5.63098 17.8624 6.21222 17.6256 6.02724C17.3832 5.84596 17.4043 5.45039 17.1846 5.37864C16.7223 5.23416 16.364 5.53469 16.0606 5.71844C15.9392 5.79536 16.374 6.24965 16.3647 6.2726C16.3552 6.29269 16.3436 6.30939 16.3304 6.3235C16.2983 6.36171 16.2546 6.38446 16.2088 6.4037C16.0147 6.47896 15.776 6.52967 16.3196 7.24234C14.0397 5.19631 16.4105 7.56081 15.7109 7.36865C15.6537 7.35266 14.6508 6.57353 14.5686 6.31284C14.4859 6.04379 14.9137 6.14903 14.8045 5.75438C14.7728 5.67279 14.0151 4.40712 13.9957 4.29903C13.8631 3.79677 14.4508 4.33308 14.8905 4.80601C15.1352 5.06654 15.3407 5.30482 15.3728 5.3356C15.5967 5.54838 15.7285 5.64284 15.8006 5.65913C15.8086 5.65288 15.8328 5.63459 15.8411 5.62882C16.0747 5.70134 15.7252 4.82231 15.7407 4.71575C15.8152 4.09332 16.2713 4.20012 16.3986 3.74382C16.4849 3.44774 15.8472 2.11002 16.0417 2.06548C16.6983 1.92059 17.6352 3.77313 17.4936 1.90472C17.4677 1.50658 16.806 0.0191213 17.6565 1.06984C17.7159 1.13366 18.3787 2.13997 18.3238 1.38438C18.3179 1.2887 18.1761 0.837776 18.1944 0.790435C18.3188 0.482628 18.5607 0.803484 18.7262 0.569356C18.8944 0.334589 19.0931 0.00417434 19.383 0.099221C19.5562 0.155791 19.9418 0.972168 20.0517 1.16908C20.3699 1.73537 20.3696 0.695211 20.6333 1.41109C20.8881 2.13293 20.896 3.3011 21.26 3.73045C21.0482 2.51899 20.8473 1.27251 20.6472 0.0517503C21.13 -0.00749162 21.6244 0.10692 22.0973 0.153569C22.3061 0.173791 22.5072 0.181403 22.7109 0.154816C23.2203 0.110364 24.4355 0.32615 24.8905 0.559557C24.9124 0.569464 24.9345 0.578787 24.9569 0.587484C25.0278 0.613626 25.2558 -0.0126711 25.3396 0.000143408C25.6916 0.0564241 25.746 0.611151 26.1509 0.603662C26.4649 0.59536 27.0612 0.109047 27.4085 0.0872181C26.9149 1.42289 27.5254 1.19827 27.7502 1.46357C27.8294 1.55609 27.6426 1.88537 27.6543 2.03148C27.7005 2.57421 28.1771 1.40879 28.3461 1.27565C29.0757 0.712612 27.7266 3.20774 28.1213 3.34873C28.1404 3.35626 29.1353 2.17928 29.2192 2.1186C29.747 1.7116 28.9902 2.59481 29.0677 2.76848C29.2084 3.08617 29.1855 3.49293 29.7069 3.28956C29.8562 3.22627 30.5727 2.55554 30.3445 3.27778C30.3147 3.37243 30.0307 3.78687 30.0322 3.82265C30.0757 4.43253 30.9514 3.12065 31.4451 2.80552C31.9416 2.49229 31.6197 3.59696 31.4914 3.89263C31.1682 4.66143 31.1713 4.09192 31.1167 4.15187C30.4737 4.86188 30.7701 4.86848 30.8743 5.04357C29.9796 6.31002 30.23 6.38001 30.9863 5.22112C31.0679 5.09369 30.8619 5.12189 30.8743 5.04357C31.9026 3.90927 32.3106 3.96616 31.6864 5.28907C31.3908 5.90845 30.7855 6.41464 31.3149 6.48647C31.5572 6.52483 32.1966 5.66231 32.5469 5.58178C33.3607 5.41113 33.1343 6.59074 33.5917 6.89139C33.5964 6.89453 33.6013 6.89719 33.6062 6.8994C33.7824 6.97946 34.0928 6.48225 34.2271 6.55301C34.606 6.7622 34.4632 7.30683 34.8837 7.54042C34.9235 7.56307 35.388 7.14618 35.4722 7.26336C35.5597 7.38351 35.6369 7.50926 35.7054 7.63925C35.9367 8.10619 35.9103 8.66892 36.1684 9.17217C36.3128 9.45173 36.8804 9.80695 36.9685 10.1412C37.128 10.7193 36.6054 11.7404 37.0022 12.1143C37.26 12.3622 37.807 12.0621 38.2561 12.039C39.1309 12.0021 37.946 13.0177 37.751 13.1509C37.7447 13.1546 37.5037 12.934 37.2596 13.1905C36.667 13.505 37.7468 13.148 37.751 13.1509C37.6303 13.2437 37.695 13.8404 37.8448 13.9178C37.9273 13.9584 38.4764 13.7391 38.5091 13.7646C39.2733 14.3772 39.6695 15.2161 39.5804 16.1877C39.5718 16.2061 38.916 16.3069 38.9037 16.3474C38.712 16.9093 39.5632 17.1105 40.0999 17.5457C40.634 17.9737 40.4995 18.4325 39.3677 18.75C39.5265 19.1129 39.0134 19.6488 38.6876 19.9232C38.3635 20.1943 39.6483 20.3539 39.6718 20.3872C40.3966 21.3964 39.5592 21.8894 39.1701 22.7985C38.9865 23.2394 38.8053 24.2117 38.6726 24.7634C38.5842 25.1609 38.2568 25.2555 38.1613 25.5875C38.1632 25.6044 38.1683 25.6242 38.1774 25.6474C38.1892 25.6783 38.6924 25.9684 38.7083 25.9854C39.2156 26.4909 38.0454 25.6813 37.811 25.5789C36.9543 25.2152 36.4796 25.0506 36.7181 25.5056C36.7709 25.6126 38.4507 26.8002 38.4985 26.9603C38.5573 27.1662 37.9491 26.7494 38.0242 26.9792C38.03 26.9988 38.4247 27.2214 38.3591 27.298C38.2441 27.4367 38.1022 27.5712 37.9587 27.7116C37.7252 27.9402 37.4881 28.1829 37.3545 28.4818C37.3235 28.547 37.9948 28.8228 37.9601 28.9234C37.7969 29.395 37.5007 29.871 36.9508 30.1457C36.8135 30.2119 36.418 29.8846 36.275 29.8316C35.4101 29.5095 36.4214 30.3964 36.4213 30.4461C36.4412 31.5871 35.2011 31.6031 34.6951 32.9259C34.669 32.9883 34.6465 33.0505 34.6196 33.1222C34.6015 33.1706 34.7664 33.5457 34.7345 33.8946C34.7135 34.2328 34.4657 34.5642 33.8493 34.3074C33.748 34.2937 32.7632 33.7577 32.5544 34.5733C32.5686 34.6117 32.5878 34.6572 32.6127 34.7105C32.6354 34.7597 33.097 35.2192 32.9015 35.2773C32.7079 35.3342 32.6915 35.8684 32.066 35.4422C31.8658 35.3101 31.0065 34.392 31.341 35.3598C31.3719 35.4229 32.2494 37.5279 31.2756 36.3159C31.1153 36.1162 30.2556 34.7259 30.4347 35.6052C30.4687 35.7758 30.7609 36.0231 30.7409 36.3046C30.7075 36.7398 30.1865 36.5449 30.2643 37.3422C30.2829 37.4809 30.6051 38.5762 30.0056 37.9456C29.9127 37.8463 29.7001 37.3402 29.5757 37.3393C28.986 37.3307 28.6495 37.9138 27.9729 37.8094C27.736 37.7717 27.4619 36.9281 27.1856 36.7925C26.907 36.6584 26.462 36.5975 26.4095 37.0485C26.3512 37.502 27.0874 38.7264 26.7909 38.9563C25.4594 39.9668 23.5122 39.5603 21.8478 39.4998C21.5953 39.4908 21.826 39.987 21.4424 40.0046C20.2436 40.0831 18.2034 40.1748 17.2025 39.2949C17.2592 39.2116 17.3114 39.1007 17.358 38.9581C17.5517 38.1646 17.6172 37.5417 17.6583 37.1858C17.6585 37.1683 17.658 37.1514 17.6567 37.135C17.6214 36.9633 17.4559 38.5784 17.464 38.6292C17.4245 39.138 17.3119 38.4064 16.9691 38.6332C16.8972 38.68 17.0135 39.332 16.9502 39.3644C16.732 39.4804 16.3695 39.2022 15.9519 39.2559C15.7608 39.2807 15.8083 39.7777 15.6071 39.7356C15.1209 39.6386 14.5801 39.3974 14.016 38.8406C13.9707 38.7907 14.4108 38.24 13.9697 38.1456C13.2282 37.9855 12.4149 37.2733 11.4101 37.263C11.114 37.2615 10.5344 38.2276 10.4117 37.2363C10.3923 37.0262 11.2518 36.0152 10.0923 36.5913C9.91941 36.7206 8.04671 37.1556 8.42417 36.084C8.51269 35.8247 9.03215 34.9869 8.89409 34.8261C8.88849 34.8194 8.87868 34.8165 8.86414 34.818C8.83375 34.8234 8.43542 35.2689 8.33004 35.2302C7.96723 35.0873 7.78416 34.7628 7.41811 34.6067C7.31999 34.5661 6.95932 35.0807 6.82774 35.0069C6.68825 34.9286 6.5705 34.8068 6.47449 34.6657C6.321 34.4397 6.21086 34.1457 6.14469 33.8833C6.10316 33.7226 6.54124 33.4717 6.57496 33.4275C7.12458 32.712 6.16903 33.4208 6.08064 33.422C5.54511 33.4233 5.78727 32.8412 5.46512 32.6789C5.37666 32.632 4.99204 33.0515 4.94228 33.0699C4.44879 33.2395 5.3055 32.6913 5.31331 32.524C5.34023 32.0565 5.0649 31.787 4.78831 31.5521C4.68642 31.4666 4.27849 31.998 4.19246 31.9156C3.6734 31.4343 3.25807 30.7822 3.10829 29.9599C3.08093 29.8042 3.52962 29.5805 3.6034 29.4891C4.12567 28.8592 3.08794 29.2557 2.96314 29.254C2.40344 29.2641 2.6873 28.902 2.46333 28.7068C1.35483 27.7538 0.589583 25.7569 0.262765 23.9186C-0.103984 21.9635 0.156986 20.1069 0.509321 18.3816C0.56249 18.1534 0.603793 17.9196 0.630899 17.6708C0.641119 17.583 -0.00110128 17.5653 1.20559e-05 17.4877C0.00505924 17.3754 0.0155688 17.2627 0.0300482 17.1518C0.147714 16.2612 0.531113 15.4027 0.654442 14.407C0.667337 14.3148 0.0572291 14.3012 0.0599338 14.1463C0.0621812 13.8252 0.217029 13.445 0.502597 13.1851C0.640478 13.0588 1.05336 13.4026 1.18129 13.2751C1.47978 12.9805 1.65372 12.6204 1.71121 12.2216C1.73547 12.0501 1.08054 12.0915 1.15807 11.8801C1.66862 10.4498 2.42344 8.79214 4.13948 7.81141C4.25851 7.74303 5.25146 8.38146 5.22655 8.05725C4.98447 7.83827 4.68573 7.59759 4.42029 7.37167C4.7663 6.88964 5.16893 6.44313 5.60455 6.04057C5.75365 5.90482 5.90521 5.77407 6.059 5.64669C6.99505 4.87128 8.03425 4.23472 9.03616 3.51321C9.10005 3.46713 8.61273 3.05933 8.73581 2.96677C9.44629 2.43307 10.0853 1.76509 11.2191 1.76812C11.3319 1.76759 11.8803 2.71142 12.0183 2.42931C12.0389 2.37992 12.3163 2.03836 12.2869 1.78108C12.282 1.74245 11.952 1.3459 12.065 1.26143C12.722 0.78239 13.5669 0.459471 14.5506 0.376544C14.7086 0.365037 14.7729 0.927065 14.8872 0.923454C15.672 0.911333 16.3785 0.202042 17.5958 0.53268C18.4192 0.784883 18.199 1.75465 18.5455 2.67439C18.5783 2.79821 19.0241 2.86858 18.9369 3.40649C18.6852 4.73349 18.419 6.18788 18.1861 7.60866C18.1542 7.85087 17.8969 7.64224 17.8062 7.88782C17.8062 7.88788 17.8062 7.88793 17.8061 7.88799C17.7825 7.96276 17.778 8.08271 17.8193 8.27056C17.8466 8.3375 18.1887 8.6504 18.2389 8.90108C18.2835 9.08005 18.1346 9.61837 18.2549 9.85061C18.3873 10.0816 18.5069 9.62288 18.6391 9.87803C18.7717 10.1348 18.8124 10.7585 19.0168 10.8016ZM37.1755 21.0442C36.5179 21.1645 38.7443 21.682 38.2674 21.266C38.2416 21.2453 37.2079 21.0367 37.1755 21.0442ZM22.3004 1.91457C22.305 1.92586 22.3096 1.93681 22.314 1.94741C22.6708 2.80796 22.6899 1.40304 22.425 0.690472C22.2678 0.280519 22.2048 0.645821 22.21 1.08635C22.2131 1.41852 22.2513 1.79383 22.3004 1.91457ZM19.7547 3.10842C20.2271 3.77235 19.5533 0.745672 19.353 1.44314C19.3406 1.48295 19.726 3.0703 19.7547 3.10842ZM17.3059 3.07976C17.3159 3.10273 17.5083 3.08495 17.5122 3.05927C17.503 2.43967 17.0671 2.48605 17.3059 3.07976ZM17.5019 4.7154C17.7591 5.05651 17.8044 4.50858 17.4894 4.07848C17.2267 3.73572 17.1717 4.29482 17.5019 4.7154ZM30.2022 29.0329C30.1726 29.0151 30.0833 29.0819 30.24 29.1985C30.7449 29.5746 30.7 29.3381 30.2022 29.0329ZM14.3892 7.9084C14.6033 7.23074 16.528 8.25642 15.7714 8.43016C15.6532 8.48567 15.5329 7.97961 15.2911 7.9871C15.0859 8.01228 15.1726 8.20861 15.2039 8.35976C15.2402 8.51569 15.221 8.63145 14.9489 8.63365C14.8693 8.65063 14.3924 7.96022 14.3879 7.9063C14.3884 7.907 14.3888 7.9077 14.3892 7.9084ZM34.4581 20.6463C34.4281 20.6441 34.3697 20.7804 34.3978 20.7902C35.0873 21.0352 35.2123 20.728 34.4581 20.6463ZM24.448 31.2157C24.4159 31.1595 24.1101 31.217 24.1228 31.2755C24.3898 32.4634 25.0769 32.3245 24.448 31.2157ZM30.6989 12.0206C29.9943 12.2177 29.8392 12.1034 30.5721 11.5687C30.6022 11.7259 30.6676 11.8649 30.6989 12.0206Z" fill="#FF4507"/>
<path d="M23.3795 16.7928C23.3761 17.2545 22.9534 18.6711 22.655 19.7678C22.6174 19.9018 22.5456 19.9572 22.4664 19.9867C22.4362 19.9524 22.4037 19.9285 22.3718 19.9057C22.2787 19.8383 22.2003 19.7915 22.1515 19.5161C21.9663 18.2699 21.1724 17.1001 20.6206 16.9635C20.4441 16.9137 20.3042 17.4586 20.1585 17.4214C19.8438 17.3661 19.7835 17.419 19.6765 17.4193C19.6208 17.4235 19.5581 17.4196 19.402 17.4319C19.2376 17.4576 19.0085 17.4369 18.3582 17.7347C18.3073 17.7596 18.2567 17.7861 18.2064 17.814C17.8632 18.0028 17.5369 18.2768 17.3081 18.5557C16.7507 19.2538 16.7286 19.7237 16.7199 19.8931C16.7232 20.0753 16.7707 20.0577 16.7906 19.9821C16.8371 19.8175 16.8077 19.426 16.714 19.037C16.7134 19.0344 16.7128 19.0319 16.7122 19.0293C16.4789 17.9311 15.5234 16.4182 14.9156 15.8853C14.9016 15.872 14.8884 15.8603 14.8767 15.8504C14.8189 15.7995 14.787 15.799 14.8769 15.8508C14.9651 15.896 15.2038 16.0202 15.6975 16.0232C16.1826 16.039 16.8732 15.7919 17.2285 15.4996C17.5994 15.2106 17.7097 14.9968 17.7486 14.9246C17.761 14.8989 17.7656 14.8857 17.7658 14.8833C17.7338 14.8961 17.5789 15.6115 17.5668 16.2394C17.5326 17.0584 17.4367 18.1168 17.5871 19.0456C17.6049 19.1575 17.6265 19.2669 17.6519 19.3727C17.7463 19.7679 17.9085 20.1416 18.1438 20.4435C18.2394 20.5644 18.6739 20.236 18.7261 20.2403C19.5161 20.2675 18.5019 20.6749 18.5348 21.0021C18.622 21.859 19.1404 22.6526 19.7358 23.055C19.8428 23.1287 19.9504 23.1903 20.0547 23.2387C20.2229 23.3166 20.3801 23.3569 20.5105 23.3636C20.7591 23.3596 20.8599 22.2677 20.8323 22.8903C20.8368 22.9331 20.6807 23.4783 20.7218 23.5511C20.8376 23.7204 20.9965 23.6229 21.0451 23.6581C21.1367 23.7104 21.1816 23.7086 21.2472 23.6846C21.2712 23.6751 21.2993 23.6617 21.3388 23.6394C21.3699 23.6226 21.407 23.6069 21.4502 23.5884C21.6842 23.5074 22.1986 23.1781 22.3632 22.6453C22.4019 22.5151 21.8202 22.4118 21.828 22.1952C21.8384 21.986 22.096 21.4991 22.2788 21.3459C22.4654 21.198 22.8584 21.3995 22.9655 21.3935C23.5151 21.3559 23.3891 20.9271 23.1749 20.6226C23.038 20.4223 22.871 20.2673 22.8649 20.2312C22.8461 20.1052 22.8302 19.9835 22.8166 19.8668C22.6262 18.6551 22.8657 17.4319 22.0568 16.0771C21.4637 15.1103 20.4623 14.2478 19.5553 13.4331C19.4597 13.3468 19.364 13.26 19.2705 13.174C19.1066 13.0229 18.9454 12.873 18.7867 12.7254C18.4319 12.3715 18.1909 12.1928 18.0134 12.1271C17.9277 12.0969 17.8466 12.0919 17.7522 12.1295C17.7442 12.1344 17.7337 12.142 17.721 12.1531C17.7036 12.1696 17.9852 12.7763 17.9949 12.7851C18.0323 12.81 17.8885 12.9334 17.7263 13.1835C17.6311 13.3262 17.5277 13.5074 17.428 13.7202C17.1904 14.2196 16.974 14.9289 16.826 15.6937C16.7946 15.8624 16.1716 15.6963 16.1061 15.8807C16.0299 16.1122 15.9404 16.3832 15.8803 16.6757C15.7917 17.1001 15.7706 17.5745 15.9073 17.9758C16.1367 18.6661 16.8493 19.1196 18.1221 18.5851C18.3882 19.1205 18.7967 19.6971 19.0183 20.3636C19.0501 20.4599 19.0786 20.5589 19.1024 20.661C19.2381 21.1841 18.5166 21.5002 19.1371 21.5683C19.2738 21.5783 19.4512 21.0023 19.62 21.0453C19.7265 21.0712 19.8284 21.1018 19.9268 21.1339C20.457 21.3092 21.0053 21.5637 21.4585 21.3436C21.5635 21.2891 21.5563 20.7666 21.582 20.6746C21.674 20.3276 21.7302 20.4097 21.8248 20.5995C21.9267 20.8205 22.0971 21.1776 22.1427 21.2168C22.3341 21.3963 22.5103 21.458 22.6417 21.4585C22.9155 21.4608 23.0621 21.1745 23.2873 20.7585C23.363 20.6146 22.6679 20.4962 22.7088 20.3659C22.7441 20.2525 22.7808 20.1262 22.8166 19.9891C22.9132 19.6217 23.0116 19.1807 23.1098 18.7049C23.1903 18.3155 23.2706 17.9232 23.3551 17.5209C23.4053 17.2788 23.9913 17.4524 24.0433 17.3288C24.2528 16.75 23.1676 16.7968 23.3025 16.2847C23.3273 16.1733 23.8158 16.1234 23.864 16.0928C24.6124 15.5809 23.3784 15.6037 23.3348 15.5489C22.715 14.742 23.5802 13.6328 22.8818 12.7645C22.7994 12.6688 22.4113 13.2187 22.2158 12.9396C22.0144 12.6572 21.8056 12.3751 21.5902 12.0946C21.2038 11.5917 20.7973 11.092 20.3739 10.6051C20.203 10.3999 20.0185 10.2068 19.815 10.0239C19.4961 9.73664 19.1291 9.46308 18.7187 9.24464C18.6495 9.20769 18.5795 9.17196 18.5092 9.1376C18.3585 9.04497 18.2721 8.9959 18.2919 8.93111C18.3261 8.84738 18.1642 8.42093 18.1682 8.36257C18.0151 7.94946 17.9296 8.0687 18.0178 8.2403C18.0929 8.41742 18.2971 8.64459 18.3136 8.65858C18.3159 8.66097 18.3181 8.66329 18.3201 8.66554C18.5151 8.56752 18.5181 8.46555 18.4805 8.51315C18.4428 8.55129 18.3792 8.67971 18.3667 8.82583C18.339 9.12216 18.5003 9.48605 19.2281 9.62812C19.2664 10.368 19.4789 11.2152 19.7545 12.0395C20.0069 12.7934 20.316 13.5443 20.6468 14.2968C21.3697 15.9311 22.4224 17.2755 23.655 18.4725C23.9882 18.7941 24.3355 19.1154 24.6984 19.4026C24.7365 19.4301 24.4805 19.9469 24.5639 20.0012C24.5873 20.0164 24.6104 20.0306 24.6339 20.0441C24.9505 20.2256 25.1718 20.2163 25.3118 20.1039C25.3575 19.9793 25.2903 19.7444 25.0891 19.5248C24.8949 19.2958 24.511 19.147 24.1662 19.0159C24.0626 18.9771 24.1547 19.0757 24.3671 19.1156C24.5756 19.1618 24.8848 19.1692 25.1042 19.1658C25.2334 19.1736 25.3296 19.1771 25.3545 19.1768C25.7492 19.1623 26.4453 19.6821 26.5339 19.6523C27.2766 19.2613 24.6068 18.3978 24.7031 17.9586C24.7112 17.9418 25.204 18.1125 25.2636 18.0753C25.452 17.9491 25.2706 17.7649 25.4615 17.6251C25.8963 17.3171 27.278 17.0801 26.4281 16.4275C26.3137 16.3542 24.7583 16.6231 24.7456 16.0586C24.7426 15.9096 24.641 15.4298 24.5381 15.0081C24.483 14.7743 24.4333 14.5607 24.4305 14.4385C24.4212 14.0967 24.9784 14.1385 24.9924 14.1108C25.312 13.0038 25.6897 13.2295 26.4426 12.3951C27.1797 11.545 25.0206 12.5803 24.6947 12.4877C24.5801 12.4548 24.5331 12.3171 24.5261 12.1359C24.5094 12.0136 24.5231 11.9538 24.5113 11.7523C24.5085 11.6946 24.5174 11.7008 24.5053 11.5621C24.5025 11.5028 24.4994 11.4331 24.5072 11.3277C24.5115 11.2747 24.5185 11.2122 24.5358 11.1335C24.5568 11.0321 24.6492 10.6027 25.0965 10.3344C25.5323 10.056 26.0734 10.2246 26.0675 10.2339C26.1747 10.2726 26.2457 10.3139 26.3011 10.3498C26.41 10.4225 26.4616 10.4777 26.5041 10.5241C26.56 10.5931 26.5715 10.6257 26.5935 10.6687C26.7022 10.9524 26.6543 11.083 26.6506 11.1864C26.595 11.4567 26.1915 11.4385 26.1882 11.6356C26.1346 12.9285 27.4605 11.4358 27.9821 11.5671C29.2168 11.9032 27.9597 13.3455 28.1401 14.1062C28.1899 14.3145 28.4806 13.9816 28.5975 14.1333C29.057 14.7462 28.7329 15.3756 29.5399 15.9604C29.6688 16.0481 30.9517 16.3199 30.3638 17.0404C30.2776 17.1405 29.7936 17.1198 29.8071 17.4602C29.8087 17.5086 29.8116 17.56 29.8158 17.6137C29.8606 18.1276 30.0054 18.8705 30.2232 19.3464C30.335 19.5887 30.6332 19.4565 30.8069 19.4563C30.9099 19.4581 30.974 19.5231 30.9104 19.7657C30.8276 20.0395 30.3621 19.6014 30.2326 20.0765C30.1347 20.5436 29.9129 21.6732 29.697 22.0626C29.5152 22.4552 30.1166 22.5184 30.1366 22.5656C30.2381 22.8877 29.8754 23.8431 29.8056 23.8966C28.6408 25.2557 27.2071 25.828 25.9286 26.2571C25.6942 26.3342 25.4696 26.4022 25.2557 26.4678C25.1504 26.4999 25.0477 26.5319 24.9753 26.5527C24.9375 26.5637 24.9074 26.5729 24.9118 26.5623C24.9195 26.5525 24.919 26.5529 24.9845 26.496C25.0152 26.4679 25.0578 26.4288 25.1165 26.3575C25.2009 26.2486 25.3717 26.0392 25.4023 25.6223C25.3916 25.6161 25.3898 25.5855 25.3549 25.4778C25.3241 25.3787 25.2153 25.1496 25.001 25.0007C24.787 24.8494 24.5958 24.8393 24.53 24.8437C24.4507 24.8492 24.4457 24.8644 24.457 24.8684C24.534 24.8864 24.8115 24.793 25.0487 24.6698C25.545 24.4165 26.0487 24.0355 26.487 23.5887C26.6462 23.4262 26.1472 23.0627 26.1675 23.0331C26.5746 22.3572 27.1554 23.9569 27.9385 23.9722C27.1244 23.1889 27.4094 23.0862 27.6825 22.6933C27.7032 22.6632 27.7234 22.6317 27.744 22.5969C27.8745 22.3678 27.4357 22.1461 27.4179 22.0955C27.2343 21.601 27.511 21.6549 27.7856 21.7514C27.9023 21.8282 28.0344 21.8949 28.0927 21.9219C28.4159 22.065 28.4497 21.9449 28.4347 21.8367C28.4226 21.724 28.3733 21.6107 28.6168 21.6234C29.1065 21.623 29.6006 22.2724 29.7833 21.7231C29.4135 21.4541 28.227 21.4407 28.1568 21.0521C28.0914 20.7031 28.1067 20.2888 28.2321 19.7363C28.3242 19.3855 28.3894 19.0123 28.7574 18.3861C29.0414 17.9893 29.5183 17.1606 30.9052 17.0893C31.7376 17.096 32.2981 17.5431 32.5768 17.8613C32.8705 18.1985 33.0063 18.5009 33.108 18.7744C33.4113 19.6876 33.4077 20.5009 33.4135 21.0311C33.3715 22.6267 33.2459 23.1074 32.8505 23.897C32.7344 24.1061 32.651 24.2719 32.5974 24.4117C32.2773 25.1786 32.9958 25.2131 32.8719 26.1299C32.8605 26.1638 32.848 26.1982 32.8343 26.233C32.4264 27.1511 31.93 26.8788 31.566 26.4963C31.1928 26.0962 30.8201 25.5521 30.6206 25.4187C30.2431 25.1333 30.4438 25.5783 30.1835 25.4436C29.9481 25.2904 29.982 24.901 29.7234 24.9453C29.6658 24.9535 29.6118 25.0103 29.553 25.0991C29.3656 25.4138 29.0236 26.0785 28.8629 26.4331C28.7926 26.6471 28.7166 26.8571 28.6619 27.0572C28.5389 27.4004 28.5595 27.7454 28.2361 27.8793C28.0772 27.933 27.7593 27.956 27.2797 27.5969C26.7805 27.2468 26.45 26.3839 26.5286 25.8485C26.5393 25.7171 26.5618 25.5986 26.5926 25.4862C26.6333 25.3637 27.1277 25.8189 27.2543 25.3929C27.4898 24.7791 27.7827 24.469 28.0778 24.1388C29.104 23.0683 30.2696 22.3165 31.4478 21.8306C31.4792 21.8176 31.5108 21.8047 31.5425 21.7919C31.7536 21.7077 31.9473 22.3258 32.0749 22.2819C32.8114 22.029 32.8409 21.7166 32.6743 21.2934C32.5289 20.9592 32.2659 20.5278 31.9135 20.1395C32.5118 20.6143 32.9986 21.0136 33.4939 21.0299C33.9793 21.0595 34.4327 20.6804 34.5572 20.0594C34.6861 19.322 33.9858 19.376 33.5387 18.9674C33.4506 18.8921 33.6064 18.6947 33.6414 18.5346C33.6615 18.445 33.6445 18.3711 33.5299 18.35C32.4836 18.1723 31.3959 18.6243 31.736 17.7299C31.7513 17.6875 32.3268 17.7282 32.3384 17.5848C32.3443 17.5088 32.3416 17.4384 32.3321 17.3751C32.3221 17.31 32.3157 17.2945 32.3035 17.1594C32.3008 17.1213 32.2983 17.077 32.3003 17.0129C32.3022 16.9743 32.3006 16.9645 32.3118 16.8774C32.3494 16.7511 32.31 16.5043 32.7499 16.0908C32.9636 15.8928 33.395 15.7737 33.6414 15.8091C33.8601 15.8275 34.0172 15.8935 34.1272 15.9514C34.345 16.0727 34.4196 16.1664 34.4815 16.2317C34.6086 16.3854 34.5795 16.3591 34.612 16.4042C34.6923 16.5317 34.7035 16.5589 34.7303 16.6037C34.7558 16.6494 34.7712 16.6732 34.7894 16.7019C34.8607 16.8148 34.9229 16.8866 34.9931 16.9575C35.1311 17.0945 35.2887 17.2038 35.4502 17.315C35.7731 17.5405 36.1225 17.8005 36.3196 18.3371C36.6663 19.2561 36.3209 21.0461 36.2146 22.1785C36.2139 22.1887 36.2131 22.199 36.2124 22.2092C34.9215 22.2365 34.808 22.7165 35.2747 23.2011C35.444 23.3948 35.6852 23.5997 35.9802 23.7962C35.7925 24.6578 35.4159 25.5971 34.7893 26.1283C34.5763 26.3086 34.2856 25.846 34.2206 25.8394C33.2737 25.631 33.9338 26.6308 33.8274 26.7975C32.8501 28.2295 31.3377 28.136 30.3266 29.1633C30.2314 29.2578 30.1353 29.3631 30.0467 29.4779C30.0104 29.5264 30.373 30.7131 29.6779 30.0094C29.6359 29.964 29.8459 29.3644 29.3551 29.4368C29.302 29.448 29.2427 29.463 29.1764 29.4815C28.3103 29.7562 27.0169 29.1944 26.0571 29.1819C25.9191 29.1831 25.7819 29.1966 25.647 29.2275C25.4936 29.2674 25.0871 29.5363 24.8641 29.6136C24.7633 29.5955 24.7049 29.5973 24.4869 29.5044C24.4258 29.4766 24.3562 29.4412 24.2748 29.3892C24.2341 29.3632 24.1905 29.3329 24.1438 29.2964C24.1011 29.2624 24.0406 29.215 23.9471 29.115C23.7764 28.9335 23.5689 28.6143 23.5091 28.2022C23.4434 27.7915 23.5581 27.3802 23.6962 27.1333C23.7648 27.0059 23.837 26.9079 23.9035 26.8294C23.9489 26.7759 23.9872 26.7362 24.0257 26.6989C24.1018 26.6257 24.168 26.5738 24.2261 26.532C24.3552 26.4418 24.3944 26.4249 24.4542 26.3933C24.5692 26.3361 24.6323 26.3172 24.6919 26.3019C24.9176 26.2502 25.0497 26.303 25.2012 26.4205C25.2982 26.5013 25.3208 26.8558 25.4678 27.0151C25.9159 27.53 25.7497 26.3107 26.3419 27.2281C26.9205 28.1462 27.8832 28.7049 28.5963 27.6763C28.6221 27.644 28.4911 26.6595 28.759 26.5615C29.0183 26.4671 29.3624 26.3904 29.6878 26.2742C29.8848 26.2043 30.0757 26.1193 30.2296 26.0182C30.2518 26.0036 30.2732 25.9887 30.2936 25.9733C30.4823 25.826 29.987 25.4464 30.0122 25.4134C30.7258 24.3702 31.5013 23.5649 31.98 21.8928C32.0682 21.5735 31.3151 20.6653 31.9659 20.0867C32.5669 19.5309 34.7623 19.944 35.0027 19.0847C35.0463 18.9244 35.0223 18.7203 34.906 18.4642C34.8791 18.4045 34.8234 18.3447 34.7456 18.285C34.2645 17.7578 32.9215 17.3791 32.2432 17.0641C32.1111 16.9996 32.0036 16.9319 31.9198 16.8573C31.8705 16.8326 31.8627 16.7355 31.7594 16.7833C31.7308 16.8493 31.7335 16.9024 31.7143 16.966C31.6676 17.1188 31.5305 17.2942 31.2742 17.4833C32.0278 19.5396 30.8363 21.4218 31.0511 23.5758C31.061 23.67 32.0443 24.2441 31.9645 24.4745C31.8455 24.8099 31.2985 24.8422 31.192 25.0621C30.9264 25.5917 30.8296 26.1457 30.6934 26.6975C30.6218 26.9878 30.5393 27.276 30.4169 27.5508C30.3646 27.6679 30.3041 27.7801 30.2331 27.8872C30.0079 28.2141 29.6361 27.82 29.3668 28.1448C29.1037 28.4359 29.3834 29.1853 28.654 29.2943C28.6487 29.2948 28.6434 29.2951 28.638 29.2954C28.4615 29.3043 28.2191 29.1959 28.0109 29.0146C27.908 28.9238 27.8107 28.8155 27.7523 28.6937C27.7063 28.576 27.6362 28.4228 27.8712 28.3164C27.8524 28.1912 27.8628 28.0729 27.9644 28.0135C28.019 27.9866 28.0875 27.9705 28.1997 28.0014C28.321 28.0399 28.4666 28.117 28.617 28.2893C28.357 28.5227 28.2125 28.7666 28.0623 28.9378C27.9159 29.1106 27.7586 29.1858 27.6576 29.1391C27.4504 29.0378 27.5112 28.7065 27.5932 28.3168C27.6277 28.1593 27.1508 27.9796 27.1502 27.8866C27.1515 27.489 27.631 27.5618 27.6224 27.1793C27.6204 27.0877 27.2823 26.7544 27.2642 26.6586C27.1085 25.8178 28.3992 26.0747 28.6117 26.1308C29.4412 26.323 29.1895 25.7215 29.6468 25.6808C30.1018 25.642 29.9316 26.263 30.3587 26.1023C31.2427 25.7688 32.0358 24.9478 32.6975 24.3048C32.9568 24.0472 32.3331 23.7895 32.3599 23.7423C32.7386 23.1398 33.8065 22.8623 32.9139 21.9043C33.2054 22.0265 33.4443 22.1092 33.636 22.1633C33.8916 22.1898 34.0599 22.1946 34.1639 22.1789C34.8076 22.042 32.9482 21.4003 33.4817 20.7993C33.5335 20.7504 35.0468 20.5636 35.2532 21.0304C35.4294 21.4543 34.9884 21.936 34.9908 22.4455C34.9908 22.5077 34.9973 22.5705 35.0109 22.6375C34.9966 22.6761 34.9501 22.7886 34.9307 22.8249C34.9307 22.8308 34.9307 22.8368 34.9307 22.8429C34.9628 23.0081 35.6273 24.5638 35.6065 24.7136C35.5485 25.8697 33.7977 24.372 33.6808 24.3227C32.4184 23.7086 32.9936 25.3043 32.9083 25.5346C32.5776 26.5336 31.7884 26.8113 31.4822 27.5664C31.2803 28.0578 32.2614 29.2003 31.9676 29.4116C31.4855 29.7586 30.8332 29.6067 30.3658 29.6312C30.1353 29.6406 29.949 29.6975 29.8899 29.8522C29.8406 29.9907 29.8757 30.3059 30.3193 30.4726C30.5235 30.5126 30.9778 30.7535 31.3175 30.7425C31.4951 30.6988 31.6512 30.6785 31.7823 30.0848C31.8301 29.7657 31.9303 29.3083 31.679 28.3232C31.484 27.3706 30.3934 26.0613 29.5361 25.8167C29.4054 25.7594 29.099 25.6879 28.7755 25.6907C28.431 25.6879 28.265 25.7997 28.1333 25.8896C27.5369 25.8944 27.3568 26.0084 27.1934 26.0716C27.0436 26.1413 26.9682 26.1935 26.9031 26.2222C26.7806 26.2791 26.7138 26.2425 26.579 26.0934C26.5146 26.02 26.2707 25.6013 26.2181 25.585C26.1884 25.5752 26.1635 25.569 26.1424 25.5659C25.927 25.5376 26.1273 25.779 26.0134 25.6433C25.9062 25.521 25.7461 25.3603 25.8175 25.2763C25.8505 25.2213 25.8913 25.1704 25.942 25.1246C26.0555 25.0223 26.4487 25.0147 26.8006 25.0102C27.031 25.0074 27.243 25.0075 27.3432 24.9957C28.0772 24.9008 27.2249 24.1762 28.0285 24.2231C28.8438 24.2419 29.8107 25.0948 30.501 24.5952C29.301 24.1945 28.0764 23.7609 26.8689 23.3617C27.2688 22.2523 27.9061 21.1071 27.9278 19.8717C27.9287 19.7222 27.2517 19.8498 27.2349 19.6949C27.1646 19.0666 27.6246 18.466 27.3718 17.9452C27.3453 17.895 27.3074 17.8442 27.2629 17.8035C27.229 17.6687 27.1942 17.5292 27.1614 17.2806C27.1463 17.1661 27.129 16.9776 27.1276 16.7609C27.1433 16.4567 27.0924 16.2173 27.3548 15.3302C27.3923 15.2176 27.4193 15.1377 27.4886 14.9713C27.5585 14.8058 27.6452 14.6259 27.7576 14.4331C28.0071 14.0289 28.2279 13.6723 28.8899 13.1262C29.5172 12.6101 30.4721 12.2185 31.2715 12.142C32.048 12.0535 32.7205 12.1723 33.2188 12.3298C34.8027 12.9274 34.9079 13.3169 35.2242 13.5654C35.6599 14.0187 35.7722 14.2129 35.8976 14.3805C36.3221 15.0003 36.4345 15.216 36.6034 15.4951C37.1959 16.5051 37.5323 17.2886 37.6705 18.1506C37.6754 18.1715 37.68 18.1924 37.6843 18.2133C37.1916 18.4229 36.9362 18.7114 36.8107 19.0435C36.5853 19.6401 36.7469 20.4013 36.632 21.0436C36.5696 21.3911 36.202 21.3459 36.064 21.5833C35.5374 22.4819 36.787 22.1682 36.949 22.4651C37.5791 23.8372 34.8775 23.4644 34.5193 24.8227C34.526 24.8585 35.4664 26.4407 35.4203 26.6932C35.3723 28.0075 34.8931 26.6134 34.4312 27.1587C33.7726 27.8822 33.0669 28.318 32.2717 28.955C32.0478 29.1372 31.8283 29.346 31.6056 29.604C31.5978 29.6131 31.5899 29.6233 31.5819 29.6342C31.3575 29.9635 30.9697 31.0869 30.1574 30.6681C30.049 30.6114 29.9088 30.1432 29.8412 30.1394C28.6658 30.0792 29.1503 31.5091 28.7012 32.1939C28.2439 32.8743 27.1611 32.0625 26.9767 31.7979C26.4361 31.128 27.157 31.4007 27.182 31.3147C27.2247 30.3524 26.6166 30.6733 26.3759 30.6646C26.2614 30.3071 26.1551 30.0514 26.0911 29.8813C26.0604 29.7956 26.0414 29.7316 26.0591 29.6759C26.0648 29.6493 26.0919 29.6198 26.1392 29.5825C26.1834 29.5438 26.2586 29.5088 26.4466 29.3507C26.5376 29.2608 26.6385 29.2108 26.8544 28.8498C27.0506 28.53 27.1764 27.9018 27.0135 27.403C26.8696 26.9086 26.562 26.6115 26.4475 26.5045C26.3397 26.4027 26.2549 26.3384 26.1879 26.2869C26.0498 26.1842 25.995 26.1385 25.9697 26.0927C25.94 26.0464 25.9247 26.0015 25.9175 25.9539C25.9045 25.8592 25.9198 25.7524 25.966 25.633C26.0181 25.5167 26.0808 25.3747 26.3174 25.2865C26.3469 25.28 26.3909 25.2759 26.5837 25.3617C26.6768 25.4049 26.7998 25.4665 26.9754 25.5914C27.0786 25.6704 27.1116 25.6797 27.3399 25.9055C27.53 26.1018 27.7611 26.3887 27.9415 26.8157C28.3665 27.6744 28.11 29.0422 27.6903 29.5749C27.4723 29.8968 27.3673 29.9841 27.262 30.0905C27.1572 30.1905 27.0645 30.2648 26.9838 30.3243C26.8106 30.4494 26.7371 30.4858 26.6695 30.5233C26.6023 30.559 26.5502 30.5829 26.5089 30.6006C26.2633 30.6948 26.3657 30.6282 26.3759 30.6646C26.4409 30.9165 26.444 31.1591 26.7281 31.2375C26.7889 31.2598 26.927 31.2479 27.1261 31.179C27.2048 31.1557 27.4073 31.0618 27.6607 30.8757C27.7898 30.7801 27.9401 30.6556 28.1109 30.4739C28.3462 30.2159 28.6961 29.7638 28.916 29.068C29.1464 28.3819 29.1563 27.4121 28.8827 26.6562C28.6188 25.8904 28.1952 25.3878 27.8698 25.0761C27.4371 24.6662 27.1608 24.5193 26.9388 24.3919C26.5693 24.1918 26.4829 24.1549 26.3542 24.0915C26.9521 23.9657 27.1117 24.1517 27.1967 24.7587C27.2117 24.8759 27.2231 25.0086 27.2329 25.1576C27.2656 25.8138 27.0058 26.5708 27.6139 26.3315C27.8352 26.2016 27.7446 25.1549 27.704 24.8621C27.6674 24.7037 27.587 24.6467 27.5145 24.6594C27.8009 24.5292 28.0997 24.4924 28.3932 24.4715C28.8366 24.4411 29.2679 24.4314 29.5269 24.2186C29.7254 24.0522 29.2416 23.6527 29.3567 23.5261C29.6347 23.201 30.1427 23.3835 30.2113 23.0423C30.213 23.014 29.7897 22.5806 29.8286 22.5389C29.9381 22.4118 29.9736 22.4187 30.003 22.5094C30.0297 22.5968 30.0757 22.7628 30.1328 22.8125C30.1716 22.6841 30.1967 22.5168 30.1971 22.3236C30.1971 22.3235 30.1971 22.3235 30.1971 22.3234C30.207 21.8684 29.7781 20.904 29.7258 20.293C29.7029 19.9892 29.7255 19.644 29.7551 19.305C29.7701 19.136 29.7858 18.9656 29.8072 18.8304C29.8203 18.7691 29.8277 18.6993 29.8644 18.7108C29.8747 18.7162 29.8873 18.7277 29.9087 18.7582C29.9213 18.7779 29.9371 18.8042 29.9594 18.8422C29.9826 18.8807 30.004 18.9219 30.0884 19.0639C30.1297 19.1318 30.182 19.2166 30.2688 19.3389C30.2906 19.3664 30.4079 19.5466 30.6446 19.7969C30.9057 20.0353 31.2204 20.4749 32.3879 20.8691C32.6859 20.9577 33.0241 21.027 33.4509 21.0376C33.9973 21.0533 34.6328 20.9367 35.1806 20.6859C36.3107 20.1699 36.8598 19.3324 37.1101 18.8318C37.5837 17.7886 37.4844 17.4276 37.5138 17.3783C37.5313 17.1263 37.5229 16.9813 37.5161 16.868C37.4973 16.6271 37.4864 16.617 37.4756 16.5546C37.4648 16.5043 37.4555 16.4709 37.4476 16.4466C37.4387 17.1252 37.4189 17.7764 37.4538 18.3999C37.4627 18.5583 37.475 18.7153 37.4918 18.8706C37.5857 20.0813 38.155 19.8967 38.4603 20.6004C38.7362 21.3062 38.305 22.3951 37.488 23.2524C36.6826 24.1298 35.5937 24.5374 35.3584 24.5841C35.3521 24.5878 35.7204 24.2308 35.9024 23.9156C36.0874 23.5994 36.1274 23.3747 35.6977 23.6457C34.8802 23.6137 35.3874 24.5507 35.3584 24.5841C35.3516 24.5859 35.3434 24.5888 35.334 24.5926C35.1212 24.6446 34.2999 25.1328 33.9543 25.382C33.8346 25.47 33.7519 25.5454 33.7223 25.6001C33.6561 25.7241 34.0379 26.1353 33.9994 26.19C33.4221 26.9943 33.2136 27.4738 33.1191 27.6674C33.1579 27.6193 33.2035 27.5564 33.2819 27.3757C33.3449 27.1554 33.5286 26.9992 33.557 25.8232C33.5353 25.3 33.4946 24.2996 32.6108 23.0808C31.7096 21.8284 30.1875 21.2885 29.4613 21.2297C29.0131 21.1788 28.8151 21.2031 28.6528 21.2174C28.5875 21.2323 28.7131 21.8561 28.5981 21.8825C28.3539 21.9518 28.3188 21.9831 28.262 21.985C28.2133 21.9873 28.1781 21.9638 28.1259 21.9319C27.9576 21.8525 27.4881 21.4331 26.5354 22.2861C26.5227 22.2707 26.5103 22.2553 26.4983 22.24C26.3534 22.0543 26.3122 21.9447 26.4207 21.8987C26.5462 21.8447 26.8737 21.8728 27.4691 21.9291C27.4011 21.6781 27.9119 21.5154 28.1993 21.3535C28.4812 21.1728 27.2703 21.4158 27.2507 21.4288C27.0688 21.4878 27.0019 21.5932 27.0041 21.6729C27.1074 21.9199 27.2705 22.2548 27.7799 22.7414C28.2518 23.1872 29.3905 23.9984 31.0768 23.9263C32.3954 23.869 33.3743 23.225 33.8095 22.7909C34.2701 22.3366 34.4084 22.0137 34.4906 21.7993C34.7369 21.1782 34.565 21.2225 34.5093 21.3788C34.5052 21.388 34.5012 21.3981 34.4971 21.4091C34.2677 21.7924 34.4466 23.4807 32.881 25.8258C32.8404 25.8865 32.8013 25.9439 32.7638 25.9984C32.4451 26.4609 32.1694 26.6752 31.9038 26.8951C31.6491 27.1035 31.4204 27.2916 31.2134 27.599C31.1564 27.6831 31.5863 28.0086 31.5776 28.0441C31.3734 29.078 30.8197 27.8319 30.5435 27.7673C29.5355 27.517 29.0402 27.3634 28.4295 28.2882C28.3 28.4907 28.6954 30.4886 28.0597 30.9433C27.6708 31.2222 27.4281 31.1773 27.193 31.1351C26.9224 31.0906 26.8387 31.0515 25.8328 31.3777C25.736 31.4042 25.7339 31.5162 25.5276 31.6546C25.2535 31.7604 25.0572 32.0751 23.3084 31.8198C21.9505 31.7119 19.4658 30.0337 18.8601 28.3612C18.155 26.7198 18.2765 25.8861 18.2931 25.2039C18.4373 23.3209 19.2209 22.3285 19.6626 21.7758C19.9824 21.4003 20.2154 21.1975 20.4212 21.0247C20.8661 20.6673 20.9709 20.6226 21.1525 20.507C21.3219 20.4053 21.4214 20.3536 21.5104 20.3076C21.5989 20.2622 21.6831 20.2215 21.7467 20.1923C21.9909 20.081 22.1407 20.0256 22.2768 19.9751C22.5406 19.8792 22.7208 19.8239 22.8983 19.7649C23.4126 19.5983 23.7935 19.4472 24.0136 19.2779C24.0693 19.2364 23.6322 18.7376 23.6887 18.6801C23.8139 18.5532 23.7979 18.5115 23.6782 18.739C23.5615 18.9482 23.4028 19.5167 23.5251 19.9636C23.5861 20.1735 24.0521 20.0787 24.1846 20.1275C24.7042 20.2733 24.415 20.322 24.1405 20.4347C23.98 20.4523 23.8208 20.4632 23.8119 20.4584C23.6631 20.371 23.548 20.0822 23.4541 19.7671C23.1501 18.7459 23.1087 17.3206 22.0939 16.1487C22.0157 16.0568 20.5478 15.945 21.3319 15.1536C21.3568 15.1252 21.5694 14.9057 21.6789 14.7175C21.7991 14.5442 21.7741 14.3481 21.5256 14.6453C21.5099 14.6635 21.3652 14.7253 21.2508 14.8059C21.1936 14.8463 21.1374 14.8824 21.1178 14.9327C21.1108 14.9614 21.1129 14.9944 21.1529 15.062C21.1756 15.0986 21.1945 15.1298 21.289 15.2424C21.3342 15.2956 21.3918 15.3613 21.479 15.4518C21.5228 15.4971 21.5742 15.5488 21.6383 15.6099C21.6919 15.661 21.878 15.8376 22.1153 16.019C22.3567 16.1995 22.6721 16.437 23.2879 16.7191C23.4432 16.7887 23.6194 16.86 23.8235 16.9286C23.9256 16.9629 24.0346 16.9964 24.1517 17.0283C24.215 17.0454 24.2548 17.0559 24.3478 17.0781C24.4794 17.1091 24.6203 17.1376 24.7711 17.1617C25.9043 17.4041 28.1364 17.1053 29.5591 15.7972C30.9858 14.5322 31.3299 13.1931 31.4793 12.4979C31.5407 12.1873 31.567 11.9316 31.5805 11.7138C31.6053 11.2795 31.5825 10.9899 31.5598 10.7617C31.5358 10.535 31.5068 10.3729 31.4808 10.2418C31.4611 10.1448 31.4514 10.104 31.4379 10.0465C31.4126 9.94031 31.3908 9.86047 31.3725 9.79599C31.2985 9.54516 31.3018 9.55548 31.2969 9.51761C31.4244 9.71769 31.7825 10.3083 31.5499 11.0321C31.4585 11.3474 30.6317 12.2365 31.6935 12.7475C31.7088 12.7546 31.8184 12.7875 31.972 12.8476C32.5543 13.045 33.7764 13.7976 32.7934 14.4196C32.5843 14.5538 31.1809 14.685 32.0477 15.6546C32.2121 15.8548 32.4918 15.4175 32.7466 15.9856C33.134 16.8915 32.7616 18.1535 33.1318 19.5843C33.2128 19.8039 33.9084 21.1469 32.883 21.7318C32.7261 21.8143 32.3717 21.4125 32.1589 21.797C32.033 22.0194 31.9089 22.2383 31.7806 22.4614C31.5136 22.8663 31.2771 23.5079 30.3127 24.6063C29.5104 25.7262 26.6073 27.1523 24.7076 26.7823C23.962 26.6927 23.3928 26.5175 22.8941 26.2874C22.858 26.2706 22.8255 26.2527 22.7964 26.2339C22.3035 25.899 22.7808 25.3162 22.2728 24.9248C21.8004 24.5601 21.0079 23.9916 20.3704 23.8323C20.2831 23.8108 20.2014 23.7999 20.1192 23.7971C19.4116 23.7576 19.2979 25.1918 18.425 24.7005C15.622 23.0567 13.997 20.2585 13.0967 17.6141C12.8653 16.8875 12.6366 16.1569 12.3793 15.4049C12.2411 14.9951 11.9757 15.4403 11.7409 14.9323C11.7292 14.9069 11.7174 14.8782 11.7057 14.8466C11.3928 13.9939 10.9605 12.9272 10.626 11.4547C10.4649 10.6995 10.3095 9.86446 10.3287 8.64505C10.4304 7.49599 10.318 5.47865 12.6685 3.00241C13.8824 1.79225 15.8291 1.02498 17.1871 0.965074C18.5758 0.87244 19.4759 1.15112 20.1054 1.41786C20.2083 1.4626 20.2961 1.50576 20.3789 1.5487C20.6399 1.70921 20.8061 1.85247 20.9071 1.97384C21.2201 2.35568 20.9293 2.5194 20.6985 2.66714C20.4912 2.79741 20.3214 2.91189 20.5637 3.11481C20.6436 3.18287 20.7685 3.26147 20.9488 3.35959C21.6695 3.74684 23.1935 2.88797 23.4528 2.98278C23.7713 3.08209 24.0658 3.20935 24.3367 3.35694C25.1057 3.77678 25.6846 4.33846 26.1791 4.92818C26.5807 5.43695 26.9372 5.9534 27.4579 6.437C27.6927 6.65748 27.9589 6.03972 28.1559 6.23641C28.3575 6.43734 28.5323 6.6661 28.691 6.90836C29.0674 7.48226 29.3475 8.12206 29.7116 8.66089C29.9439 9.00624 30.3022 8.71216 30.4647 9.07312C30.85 9.93325 31.0408 10.7913 30.9722 11.799C30.9639 11.8867 30.2357 11.585 30.4571 12.2195C30.8167 13.2646 30.7626 14.6554 31.3723 15.864C31.5512 16.22 32.6155 16.1414 31.957 17.0611C31.8127 17.256 30.555 17.0712 31.6697 18.011C31.7762 18.1042 32.3245 18.7103 32.525 19.4103C32.6724 19.9092 32.6352 20.4603 32.1823 20.7682C31.8982 20.9733 30.7803 21.3373 30.8128 21.8626C30.8193 21.9402 31.4445 21.7968 31.3836 22.2468C31.3667 22.3582 31.3471 22.4699 31.3246 22.5827C31.0166 24.0817 30.2514 25.8369 28.7444 27.577C28.2932 28.0739 29.4508 27.8188 28.7075 28.5677C28.4019 28.8606 28.0554 29.1458 27.6743 29.4091C26.2444 30.4093 24.5167 30.9247 23.0416 31.0201C22.2075 31.0793 21.4398 31.0296 20.7686 30.9273C19.9731 30.7919 20.5799 30.3338 20.5227 30.2748C19.7648 29.3051 19.1105 30.3825 18.7834 30.3843C17.4934 30.3812 16.5811 29.8247 15.729 29.2918C15.3474 29.0514 14.9761 28.8134 14.563 28.6068C14.1989 28.4199 14.124 29.0601 14.027 29.0589C13.0199 28.9877 14.1396 28.4939 13.7774 28.0974C13.5981 27.8943 13.4159 27.6955 13.2323 27.4996C12.4029 26.6165 11.5338 25.774 10.7879 24.9154C10.4544 24.5269 10.2771 25.4 9.97858 25.0324C9.0851 23.9241 8.33691 22.6352 7.82745 21.1823C7.51522 20.2894 7.31141 19.3766 7.21469 18.4752C7.15893 17.9562 7.13875 17.4411 7.15309 16.9338C7.1733 16.4062 7.71236 16.687 7.81847 16.5695C8.56154 15.8113 7.46813 14.8147 7.3828 14.5278C6.97601 13.3372 7.49366 12.9116 7.64496 11.852C7.71394 11.4119 7.81308 10.956 7.95118 10.4839C8.20219 9.62541 8.57608 8.72694 9.11966 7.83173C10.2226 6.03295 12.101 4.09118 15.1225 3.24612C16.2987 2.92861 17.5731 2.83618 18.7564 2.97006C21.4694 3.27917 23.3924 4.58843 24.615 5.68949C24.621 5.69487 24.6269 5.70026 24.6329 5.70565C25.0079 6.06178 25.3671 6.42286 25.7138 6.78947C28.2935 9.63869 30.4836 12.7245 31.3214 17.7503C31.3695 18.1116 31.9687 17.6693 32.0168 17.9928C32.1406 18.9089 32.1547 19.8497 32.0681 20.7681C32.0196 21.2869 31.9438 21.7898 31.8457 22.2833C31.3151 24.6806 30.6501 26.8685 28.6711 29.5402C28.3957 29.8819 29.2924 29.8094 28.831 30.3943C28.6024 30.6762 28.3259 30.9752 27.9992 31.2733C27.4963 31.7337 26.8823 32.1791 26.2035 32.5381C25.4589 32.9346 24.6407 33.2227 23.8787 33.3676C22.9617 33.5244 23.9988 32.6785 23.1149 32.821C21.0607 33.1176 19.0025 32.8395 17.3734 32.388C16.6736 32.1882 17.4926 33.1838 16.5777 32.8532C15.9896 32.6293 15.4487 32.3725 14.9493 32.096C14.5578 31.8793 14.1907 31.65 13.844 31.4104C10.5223 29.0605 8.62336 25.9191 8.04537 22.4256C8.0066 22.1734 7.97673 21.9229 7.95538 21.6744C7.94355 21.5367 7.93454 21.3996 7.92817 21.2629C7.91419 20.9457 9.15107 20.4088 8.80194 19.8829C8.43252 19.9055 8.00697 19.9851 7.61659 20.035C7.18894 17.229 6.95885 15.0667 8.51686 11.0866C8.62462 10.8501 8.74615 10.6063 8.88828 10.3525C9.31528 9.60134 9.93838 8.69645 11.0659 7.84304C12.1667 6.98234 13.8838 6.38542 15.3043 6.41487C18.2039 6.52269 19.3969 7.66744 20.3645 8.35891C20.4495 8.42685 20.5335 8.49544 20.6149 8.56315C22.0578 9.79547 22.8828 10.9418 23.6795 12.1541C23.8172 12.3706 24.0864 11.652 24.3585 12.0795C25.0375 13.1667 25.6415 14.2734 26.107 15.5857C26.1094 15.5924 26.1117 15.599 26.114 15.6057C26.6128 17.3493 27.2974 18.9478 26.1671 22.4232C26.0392 22.7467 25.7375 22.741 25.4066 22.8866C25.0475 23.0355 24.7938 23.3079 24.0792 24.3499C23.97 24.5006 23.3997 25.2456 22.4522 25.8043C22.3694 25.8539 22.2844 25.902 22.1977 25.9483C20.9742 26.5709 20.177 26.6522 19.8392 26.8085C19.7507 26.8447 20.2425 27.3391 19.414 27.3729C17.594 27.3634 16.1704 27.0069 14.5084 25.9388C12.9033 25.0119 10.9817 22.1682 11.2851 19.5631C11.2884 19.5144 11.2922 19.4657 11.2965 19.4172C11.3639 19.0133 11.4453 18.6196 11.5423 18.2228C11.623 17.9018 12.1359 18.2961 12.1982 18.0719C12.6508 16.4823 12.4881 14.6381 13.7013 12.8589C14.6153 11.6184 15.2563 12.5077 16.47 12.3418C16.56 12.3345 16.7548 12.1188 17.1173 11.9283C17.4566 11.7249 18.1214 11.6435 18.2254 11.9189C18.4699 12.5631 18.4065 13.3075 18.7113 13.9759C18.9638 14.6581 19.4991 15.2254 19.551 15.9927C19.5955 16.0946 18.9194 16.4678 17.9477 16.2986C16.9996 16.1117 16.6224 15.6929 16.5269 15.8119C16.5269 15.812 16.5269 15.812 16.5268 15.812C16.5031 15.8726 16.4427 16.0849 17.0939 16.6046C17.1464 16.6375 17.4318 16.8201 17.983 16.9465C18.5238 17.0805 19.2943 17.0448 19.8138 16.8906C20.8667 16.5612 21.1131 16.3158 21.32 16.318C21.576 16.2967 21.7584 16.9269 22.1887 16.7715C22.5964 16.6211 22.2647 16.2422 22.5141 16.34C22.7586 16.4574 23.3528 16.6468 23.3795 16.7928ZM29.9296 21.1283C30.3304 21.1778 30.7188 21.2994 31.0143 21.435C31.4941 21.6433 31.8038 22.1446 31.0393 22.4331C30.6759 22.5605 29.9741 22.4852 29.5219 22.0986C29.4166 22.0123 29.8542 21.1163 29.9296 21.1283ZM29.5193 21.322C30.5705 20.8644 29.1626 20.3574 28.3725 20.6661C27.58 20.9374 29.1999 21.4427 29.5193 21.322ZM28.4439 27.0312C28.8082 27.0097 28.6321 26.7272 28.2719 26.49C28.0066 26.295 27.6411 26.1166 27.3493 26.0338C27.0288 25.9224 26.8271 25.8843 26.9578 26.0805C26.9834 26.1098 28.3902 27.0319 28.4439 27.0312ZM15.5831 15.0596C15.6074 15.0609 15.7528 14.6357 15.7339 14.6172C15.2167 14.2002 14.9126 15.0913 15.5831 15.0596ZM29.59 27.4323C29.1285 27.2784 29.0007 28.0898 29.5722 28.2728C30.0195 28.4289 30.156 27.627 29.59 27.4323ZM27.2473 14.5686C27.2714 14.5476 27.1706 14.282 27.0183 14.3654C26.5274 14.631 26.8398 14.91 27.2473 14.5686ZM32.2772 17.8314C32.707 17.9434 33.073 18.2493 33.2107 18.6253C33.3555 19.0008 33.2535 19.3819 33.0629 19.6196C33.0225 19.6718 32.9786 19.7191 32.9328 19.7618C32.7828 19.9024 32.6151 19.9937 32.4762 20.057C32.4372 20.0751 32.4004 20.091 32.3665 20.105C32.1824 20.1685 32.1559 20.2237 32.0811 19.9888C32.0447 19.8999 32.1866 19.8168 32.3729 19.7175C32.552 19.6152 32.8019 19.527 32.7592 19.3348C32.6502 18.974 32.2463 19.0653 31.9534 19.1089C31.6438 19.1576 31.3794 19.1155 31.0911 18.716C31.0391 18.6443 31.2757 18.4511 31.569 18.2416C31.8573 18.0346 32.2269 17.8136 32.2813 17.8295C32.2799 17.8301 32.2785 17.8308 32.2772 17.8314ZM30.9764 18.8261C30.9751 18.8217 30.9651 18.817 30.9484 18.8133C30.8504 18.7706 30.5726 18.9072 30.5899 18.9395C30.6897 19.1836 30.8549 19.2594 30.9175 19.3081C30.9903 19.3526 30.949 19.3471 30.9587 19.2236C30.9613 19.1396 31.0076 19.0105 30.9764 18.8261ZM23.6937 19.5795C23.7 19.5414 23.4065 19.3456 23.2021 19.2115C23.0952 19.1427 23.0091 19.0927 22.9913 19.1028C22.605 19.3688 22.5938 19.6984 22.7679 19.9201C23.0234 20.2465 23.6 20.2691 23.6937 19.5795ZM36.1659 22.228C36.634 22.5419 36.8192 22.9582 36.6147 23.3024C36.5087 23.5141 36.2982 23.6863 35.9816 23.7937C36.0266 23.6162 36.0581 23.4435 36.0805 23.262C36.1261 22.9124 36.1441 22.5678 36.1659 22.228Z" fill="#FF4507"/>
<path d="M13.27 30.7306V8.91241H27.2473V12.2256H17.2224V18.1489H26.2885V21.4621H17.2224V30.7306H13.27Z" fill="white"/>
</svg>
